<?xml version="1.0" encoding="UTF-8"?> <svg xmlns="http://www.w3.org/2000/svg" width="95" height="11" viewBox="0 0 95 11" > <defs> <linearGradient id="a" x1="-.283%" x2="97.354%" y1="89.472%" y2="14.342%"> <stop offset="6%" stopColor="#440038" stopOpacity=".5" /> <stop offset="100%" stopColor="#440038" stopOpacity="0" /> </linearGradient> <linearGradient id="b" x1="101.681%" x2="6.314%" y1="66.01%" y2="33.851%"> <stop offset="6%" stopColor="#440038" stopOpacity=".5" /> <stop offset="100%" stopColor="#440038" stopOpacity="0" /> </linearGradient> <linearGradient id="c" x1="100.647%" x2="-.223%" y1="49.381%" y2="49.381%" > <stop offset="6%" stopColor="#440038" stopOpacity=".5" /> <stop offset="100%" stopColor="#440038" stopOpacity="0" /> </linearGradient> </defs> <g fill="none" fillRule="nonzero"> <g fill="#000"> <path d="M6.373 5.186s.04-.354-.36-.354H3.006c-.4 0-.36-.353-.36-.353l.12-.708s.04-.353.44-.353h3.408c.28 0 .36-.354.36-.354l.12-.589s.041-.354-.36-.354h-5.09c-.401 0-.441.354-.441.354L.04 8.329s-.08.353.36.353h1.163c.28 0 .361-.353.361-.353l.36-1.925s.04-.354.442-.354h3.206c.281 0 .361-.354.361-.354l.08-.51zM30.304 7.425c-.401 0-.361-.354-.361-.354l.12-.746s.04-.354.441-.354h3.367c.28 0 .361-.353.361-.353l.12-.59s.04-.353-.36-.353h-3.167c-.4 0-.36-.354-.36-.354l.12-.589s.04-.353.44-.353h3.568c.28 0 .36-.354.36-.354l.12-.59s.04-.353-.36-.353h-5.291c-.4 0-.441.354-.441.354l-1.162 5.853s-.08.354.36.354h5.612c.28 0 .36-.354.36-.354l.121-.589s.04-.354-.36-.354h-3.608v.079z" /> <path d="M39.884 4.754c-.4 0-.441.353-.441.353l-.12.59s-.08.353.36.353h1.043s.32 0 .24.314l-.08.472s-.04.432-.32.51c0 0-.682.236-1.764.236-1.083 0-2.445-.432-2.445-1.925 0-1.453 1.924-2.396 3.327-2.396 0 0 1.202 0 1.964.471 0 0 .24.197.44.04l1.003-.63s.4-.196.12-.431c0 0-.922-.747-3.247-.747-2.325 0-5.17 1.061-5.491 3.772 0 0-.481 3.064 4.208 3.103 0 0 1.604 0 3.287-.471 0 0 .562-.157.642-.59l.52-2.632s.081-.392-.36-.392h-2.886zM22.808 8.721c-.32 0-.44-.314-.44-.314l-2.366-5.853s-.16-.354.2-.354h1.403s.401 0 .522.354l1.483 3.85s.12.353.36 0l2.766-3.89s.24-.353.642-.353h1.162s.481 0 .2.353l-4.409 5.854s-.24.314-.641.314h-.882v.04zM51.629 8.368l-2.365-5.854c-.16-.353-.521-.353-.521-.353H47.9c-.32 0-.601.353-.601.353l-4.69 5.854c-.321.393.2.353.2.353h1.283s.32 0 .601-.353l.601-.825s.2-.275.521-.275h2.967s.32 0 .44.353l.281.747s.12.314.401.314h1.403c.04.04.481.079.32-.314zM48.262 6.05h-1.363c-.441 0-.24-.275-.24-.275l.961-1.336c.401-.589.561 0 .561 0l.441 1.336c.12.314-.36.275-.36.275zM18.038 2.16c-.28.04-.561.354-.561.354l-4.25 5.343c-.32.393-.56 0-.56 0l-.922-1.453c-.28-.433.32-.629.32-.629.682-.236 1.644-.746 1.684-2.004.04-1.767-3.127-1.61-3.127-1.61H7.897c-.401 0-.441.353-.441.353L6.293 8.368s-.08.353.361.353h1.162c.281 0 .361-.353.361-.353l.401-1.964s.04-.354.441-.354h.32c.281 0 .402.314.402.314l1.122 1.965s.16.353.48.353h3.007s.32 0 .601-.353l.602-.825s.2-.275.52-.275h2.967s.32 0 .441.353l.28.747s.12.314.401.314h1.403s.401.04.281-.354l-2.365-5.853c-.16-.354-.521-.354-.521-.354h-.04l-.882.079zm-7.736 2.633H9.219c-.4 0-.36-.354-.36-.354l.16-.746s.04-.354.44-.354h.923s1.002-.039 1.242.275c0 0 .16.157.08.472-.04.353-.36.707-1.402.707zm8.137 1.257h-1.363c-.441 0-.24-.275-.24-.275l.961-1.336c.401-.589.562 0 .562 0l.44 1.336c.12.314-.36.275-.36.275zM19.922.432h-.882a.717.717 0 0 0-.48.275l-.442.629c-.24.314.2.314.2.314h.882c.321-.04.481-.275.481-.275l.441-.629c.24-.314-.2-.314-.2-.314z" /> </g> <path fill="#533186" d="M55.797 9.271c3.327-.864 6.855-2.239 6.855-4.164 0 0 .44-2.553-6.694-3.928 0 0-1.323-.275-1.563 0-.241.275.761.628.761.628 1.924.747 4.049 1.925 4.089 3.379 0 0 .48 1.846-4.049 3.614 0 0-.922.314-.801.59.12.196 1.042-.04 1.402-.119z" /> <path fill="#96007B" d="M54.996 8.486c1.924-.747 3.768-1.807 3.768-3.182 0 0 .28-1.65-3.728-3.261-.12-.04-.641-.197-.882.04-.2.196.4.628.4.628.762.628 1.524 1.493 1.484 2.475-.04.903-.722 1.689-1.684 2.396 0 0-.881.59-.681.943.24.354.962.079 1.323-.04zM94.92 2.593l-.722 1.257s-.12-.04-.48-.118c-.361-.078-.762-.157-.963-.157-.28 0-.4.079-.4.275s.4.471.921.864c.602.432.962.825 1.123 1.1.16.315.24.59.28.865 0 .589-.2 1.06-.641 1.453s-1.002.59-1.724.59c-.721 0-1.483-.197-2.204-.59l.4-1.453c.842.392 1.524.51 1.965.51.52 0 .6-.235.56-.471-.04-.197-.44-.51-1.001-.943-.561-.432-1.083-.904-1.243-1.179-.16-.235-.24-.353-.24-.589-.04-.55.08-1.06.52-1.453.442-.393.923-.55 1.604-.55.682.039 1.563.196 2.245.589zM73.715.196c-1.082.236-1.162 1.022-1.162 1.022l-.08.786 1.843-.354.16-1.532h-.36l-.4.078zM83.335.118c-1.162.275-1.242 1.06-1.242 1.06l-.08.826 1.924-.393.16-1.611h-.36l-.402.118zM72.432 2.082l-.6 5.54s-.121 1.1 1.643 1.1l.761-6.64h-1.804zM71.55 2.121h-.08a2.012 2.012 0 0 0-1.843 1.1l-1.403 3.104-.922-4.164h-1.844L67.02 8.8h1.804l3.327-6.64h-.601v-.039zM83.536 2.16h-1.523l-.16 1.1-.602 4.754c-.08.55-.2.943-.36 1.1-.161.157-.402.354-.802.393l-.2 1.414c.2.04.44.079.68.079.522 0 1.003-.118 1.404-.393.4-.275.681-.628.841-1.021.16-.393.28-1.061.401-2.004l.682-5.46h-.361v.039zM89.348 2.829c-.44-.472-1.122-.708-1.964-.708-.922 0-1.643.275-2.205.825-.6.59-.922 1.415-.962 2.515 0 1.139.24 1.964.802 2.553.521.55 1.243.786 2.205.786.721 0 1.362-.196 1.803-.432 0 0 .2-.314.441-1.257.04-.197 0-.157 0-.157-.32.196-1.282.51-2.084.51-.762 0-1.243-.314-1.403-.982l2.926-.471.962-.157c.04-.433.04-.708.04-.708.16-1.06-.04-1.807-.56-2.317zm-3.287 1.885c.16-.825.601-1.218 1.363-1.218.722 0 1.082.393 1.082 1.218l-2.485.354c0-.157 0-.236.04-.354z" /> <path fill="url(#a)" d="M20.684 5.068s-.12.668.08 1.336l2.204-.354-.2-1.336-2.084.354z" transform="translate(65.338)" /> <path fill="url(#b)" d="M2.846 6.286L1.643 8.72l-.52-2.16 1.322-2.043z" transform="translate(65.338)" /> <path fill="#96007B" d="M80.45 7.7l.64-5.46a9.16 9.16 0 0 0-2.084-.236c-1.443 0-2.565.353-3.327 1.1-.761.746-1.162 1.689-1.122 2.828 0 .825.24 1.493.641 2.004.401.51.922.785 1.564.785.6 0 1.122-.039 1.763-.55l-.08.55h.36c.241.04 1.524.079 1.644-1.021zm-3.127-.51c-.28 0-.521-.119-.722-.315-.16-.236-.28-.432-.28-.825 0-.707.2-1.257.56-1.729.402-.471 1.003-.707 1.765-.707.12 0 .28 0 .44.04l-.4 3.025c-.401.353-.882.51-1.363.51z" /> <path fill="url(#c)" d="M13.188 8.21l.2-1.57s-.641.628-1.563.55c0 0-.481-.04-.521.628-.08.628 0 .982.561.943a2.752 2.752 0 0 0 1.323-.55z" transform="translate(65.338)" /> </g> </svg> 