<?xml version="1.0" encoding="UTF-8"?> <svg xmlns="http://www.w3.org/2000/svg" width="15" height="15" viewBox="0 0 15 15" > <path fill="#979797" fillRule="nonzero" d="M12.147.331L5.882.296 3.392.284c-.289 0-.567.036-.833.107C1.112.746.035 2.086.023 3.686L0 7.54c0 .592.139 1.15.394 1.635.046.095.104.19.162.285.116.178.255.355.405.51a3.26 3.26 0 0 0 2.362 1.019L4.69 11l-.012 1.34-.011 2.05 4.446-3.367 2.965.024c1.852.012 3.37-1.517 3.38-3.414l.012-1.884.012-1.968C15.494 1.884 14 .343 12.147.33z" /> </svg> 