<?xml version="1.0" encoding="UTF-8"?> <svg xmlns="http://www.w3.org/2000/svg" width="13" height="14" viewBox="0 0 13 14" > <g fill="#888" fillRule="evenodd"> <path d="M6.5 0c-.15 0-.27.127-.27.28 0 .155.12.28.27.28 3.285 0 5.958 2.764 5.958 6.16 0 .155.122.28.271.28.15 0 .271-.125.271-.28C13 3.017 10.084 0 6.5 0" /> <path d="M6.5 2.8c2.09 0 3.792 1.76 3.792 3.92 0 .155.121.28.27.28.15 0 .271-.125.271-.28 0-2.47-1.944-4.48-4.333-4.48-.15 0-.27.127-.27.28 0 .155.12.28.27.28M6.5 5.04c.896 0 1.625.754 1.625 1.68 0 .155.121.28.27.28.15 0 .272-.125.272-.28 0-1.234-.972-2.24-2.167-2.24-.15 0-.27.127-.27.28 0 .155.12.28.27.28M.315 5.76a25.726 25.726 0 0 0 7.12 7.361 1.846 1.846 0 0 0 2.386-.25l.63-.651c.53-.55.526-1.435-.002-1.98l-1.15-1.187c-.53-.546-1.49-.589-2.123.217A25.468 25.468 0 0 1 4.04 6.028c.78-.656.738-1.647.211-2.196l-1.15-1.188a1.322 1.322 0 0 0-1.914-.002l-.63.652A2.006 2.006 0 0 0 .314 5.76" /> </g> </svg> 