<?xml version="1.0" encoding="UTF-8"?> <svg xmlns="http://www.w3.org/2000/svg" width="26" height="13" viewBox="0 0 26 13" > <g fill="#888" fillRule="evenodd"> <path d="M4.645 6.143c.318 0 .575-.24.575-.536 0-.297-.257-.537-.575-.538H1.221c-.318 0-.575.238-.575.533 0 .298.257.538.575.538l3.423.003h.001zM4.673 7.216H2.947c-.317 0-.575.241-.575.537 0 .298.258.537.575.537h1.726c.318 0 .575-.24.575-.537 0-.296-.257-.537-.575-.537M4.673 9.364h-.575c-.318 0-.575.24-.575.537 0 .298.257.537.575.537h.575c.318 0 .575-.24.575-.537 0-.296-.257-.537-.575-.537M21.996 9.176c-1.103 0-2.001.858-2.001 1.912 0 1.054.898 1.912 2.001 1.912 1.105 0 2.002-.858 2.002-1.912 0-1.054-.897-1.912-2.002-1.912zm-11.21 0c-1.103 0-2.002.858-2.002 1.912 0 1.054.899 1.912 2.002 1.912 1.104 0 2.002-.858 2.002-1.912 0-1.054-.898-1.912-2.002-1.912zm9.209-5.352h.953l1.09 2.082c.1.191.343.265.538.171a.374.374 0 0 0 .179-.513L21.554 3.27a.403.403 0 0 0-.358-.211h-1.201c-.221 0-.4.171-.4.382 0 .21.179.383.4.383zM6.783.382c0-.21.179-.382.4-.382h10.41c.22 0 .4.171.4.382v8.412c0 .211.18.382.4.382.221 0 .4-.17.4-.382V1.912c0-.211.18-.383.4-.383h2.803c.146 0 .28.075.351.197l1.974 3.394 1.562 1.492a.376.376 0 0 1 .117.27v4.207c0 .21-.18.382-.4.382h-.832c.247-1.65-1.1-3.06-2.772-3.06-1.659 0-3.02 1.398-2.77 3.06h-5.668c.247-1.65-1.1-3.06-2.772-3.06-1.659 0-3.02 1.398-2.77 3.06h-.833a.392.392 0 0 1-.4-.383V.382z" /> </g> </svg> 