<?xml version="1.0" encoding="UTF-8"?> <svg xmlns="http://www.w3.org/2000/svg" width="16" height="14" viewBox="0 0 16 14" > <g fill="#888" fillRule="evenodd"> <path d="M3.406 2.667L4.072 0H1.667a.333.333 0 0 0-.299.184L.127 2.667h3.28zM7.333 2.667L7.331 0H4.76l-.666 2.667zM11.238 0H8l.002 2.667h3.904zM12.594 2.667h3.28L14.631.184A.333.333 0 0 0 14.333 0h-2.407l.668 2.667zM12 3.333H8.001L8 6.145c.667.451 2.517 1.007 3.997-.263l.002-2.549zM3.333 3.333H0v.334c0 1.749 1.914 2.911 3.33 2.031l.003-2.365zM12.667 3.333v2.364C14.07 6.578 16 5.43 16 3.667v-.334h-3.333zM7.333 3.333H4v2.544c.998.86 2.13 1.081 3.333.272V3.333zM11.667 10.667a.333.333 0 1 0 0 .667.333.333 0 0 0 0-.667" /> <path d="M12.667 13c0 .184-.15.333-.334.333h-2A.333.333 0 0 1 10 13V8.333c0-.184.15-.333.333-.333h2c.184 0 .334.15.334.333V13zM8 11c0 .184-.15.333-.333.333h-4A.333.333 0 0 1 3.333 11V8.333c0-.184.15-.333.334-.333h4C7.85 8 8 8.15 8 8.333V11zm4.474-4.64c-1.604 1.42-3.785 1.043-4.805.377-1.493.974-2.994.64-4.143-.376-.651.35-1.38.412-2.193.121v7.185c0 .184.15.333.334.333h12.666c.184 0 .334-.15.334-.333V6.482c-.758.27-1.494.255-2.193-.122z" /> </g> </svg> 