<?xml version="1.0" encoding="UTF-8"?> <svg xmlns="http://www.w3.org/2000/svg" width="14" height="14" viewBox="0 0 14 14" > <path fill="#888" fillRule="evenodd" d="M7 9.333A2.336 2.336 0 0 1 4.667 7 2.336 2.336 0 0 1 7 4.667 2.336 2.336 0 0 1 9.333 7 2.336 2.336 0 0 1 7 9.333m6.708-3.5h-1.665c-.117-.46-.265-.972-.454-1.36l1.185-1.185a.29.29 0 0 0 0-.413l-1.65-1.649a.29.29 0 0 0-.412 0L9.526 2.411c-.388-.19-.9-.337-1.36-.453V.292A.292.292 0 0 0 7.876 0h-1.75a.292.292 0 0 0-.292.292v1.666c-.46.116-.972.264-1.36.453L3.289 1.226a.29.29 0 0 0-.413 0l-1.65 1.65a.292.292 0 0 0 0 .412l1.186 1.186c-.188.386-.337.898-.454 1.36H.292A.292.292 0 0 0 0 6.124v1.75c0 .161.13.292.292.292h1.665c.117.461.266.973.454 1.36l-1.186 1.186a.29.29 0 0 0 0 .412l1.65 1.65a.3.3 0 0 0 .413 0l1.186-1.186c.386.188.898.337 1.36.454v1.665c0 .161.13.292.291.292h1.75c.161 0 .292-.13.292-.292v-1.665c.46-.117.973-.265 1.36-.454l1.185 1.185a.29.29 0 0 0 .413 0l1.65-1.65a.29.29 0 0 0 0-.411l-1.186-1.186c.188-.387.337-.899.454-1.36h1.665c.161 0 .292-.131.292-.292v-1.75a.292.292 0 0 0-.292-.292" /> </svg> 