<?xml version="1.0" encoding="UTF-8"?> <svg viewBox="0 0 27 24" > <g fill="none" fillRule="evenodd"> <g fill="#666" fillRule="nonzero"> <path d="M46.305 723c.158 0 .303.092.374.237l2.275 4.627.01.023.014.035c.005.017.01.033.013.049.005.028.009.058.009.09l-.006-.072c.004.02.006.041.006.061v1.167c0 1.694-.974 3.029-2.276 3.584v13.765c0 .213-.148.39-.344.427l-.075.007h-21.61c-.206 0-.378-.153-.413-.356l-.007-.078v-13.77c-1.258-.537-2.21-1.798-2.272-3.413l-.003-.166v-1.157-.013c0-.017.002-.034.004-.051l.008-.04c.007-.03.018-.061.034-.092l-.025.06.014-.038.01-.022 2.275-4.627c.072-.145.217-.237.375-.237zm-3.34 9.174l-.07.094c-1.823 2.331-5.133 2.694-7.285.727l-.11-.106-.111.107c-2.157 1.974-5.468 1.594-7.286-.73l-.07-.092-.032.028c-.92.744-1.946.981-2.887.835v13.095H32v-8.747c0-.186.144-.341.335-.377l.085-.008h5.687c.232 0 .42.172.42.385l-.001 8.747h7.359v-13.09c-.938.145-1.962-.093-2.884-.838l-.036-.03zm-5.278 5.693h-4.848l-.001 8.265h4.848v-8.265zm10.473-9.373H22.839v.723c0 2.557 2.81 4.029 4.857 2.118l.117-.114c.19-.193.504-.157.647.075 1.529 2.468 4.849 2.857 6.727.685.166-.192.459-.193.626 0 1.874 2.162 5.192 1.794 6.726-.684.144-.232.457-.27.648-.077 2.068 2.093 4.973.598 4.973-2.003v-.723zm-2.113-4.627H24.952l-1.849 3.76h24.792l-1.848-3.76z" transform="translate(-22 -723)" /> </g> </g> </svg> 