<?xml version="1.0" encoding="UTF-8"?> <svg viewBox="0 0 27 26" > <g fill="none" fillRule="evenodd"> <g fill="#666" fillRule="nonzero"> <g> <path d="M25.65 4.864c-.038-.114-.19-.266-.342-.304-.19-.038-.38.076-.456.152l-3.42 3.42-3.344-3.306 3.42-3.42c.152-.152.228-.342.152-.494-.038-.19-.152-.304-.304-.342C20.596.304 19.798.152 19 .152c-1.862 0-3.686.76-5.016 2.052-1.786 1.786-2.47 4.484-1.786 6.954l.038.152-.038.038L1.33 20.254c-.608.608-.988 1.444-.988 2.356 0 .912.342 1.71.988 2.356.608.608 1.482.988 2.356.988.874 0 1.71-.342 2.356-.988l10.906-10.944.152.038c2.47.684 5.092 0 6.916-1.786 1.9-1.938 2.546-4.864 1.634-7.41zm-2.318 6.688c-1.672 1.672-4.142 2.242-6.384 1.444-.152-.076-.342-.038-.494.114L5.32 24.244c-.418.418-1.026.684-1.672.684-.646 0-1.216-.228-1.672-.684-.456-.456-.684-1.026-.684-1.634 0-.608.266-1.216.684-1.634L13.11 9.804c.114-.114.152-.342.114-.532-.798-2.242-.228-4.712 1.444-6.346C15.808 1.786 17.404 1.14 19 1.14c.228 0 .494 0 .76.038l.57.076-3.192 3.192c-.076.076-.152.228-.152.342 0 .114.038.228.152.342l3.99 3.99c.19.19.494.19.646 0l3.192-3.192.114.532c.228 1.9-.38 3.762-1.748 5.092z" transform="translate(-22 -770) translate(22 770)" /> </g> </g> </g> </svg> 