<?xml version="1.0" encoding="UTF-8"?> <svg viewBox="0 0 29 29" > <g> <g> <path fill="white" stroke="#666666" d="M27.8,14.2c0-7.5-6.1-13.7-13.7-13.7S0.5,6.6,0.5,14.2c0,4.7,2.4,8.9,6.1,11.4c0.8-3.4,3.9-5.9,7.5-5.9h0.3 c3.6,0,6.6,2.5,7.5,5.9C25.4,23.1,27.8,18.9,27.8,14.2z M19.5,12.6c0,2.9-2.3,5.2-5.2,5.2h-0.2c-2.9,0-5.2-2.3-5.2-5.2V9.9 c0-2.4,2-4.4,4.4-4.4h1.8c2.4,0,4.4,2,4.4,4.4V12.6z" /> <path fill="white" stroke="#666666" d="M14.3,19.7H14c-3.6,0-6.6,2.5-7.5,5.9c2.2,1.5,4.8,2.3,7.6,2.3c2.8,0,5.4-0.9,7.6-2.3 C20.9,22.2,17.9,19.7,14.3,19.7z" /> <path fill="white" stroke="#666666" d="M15.1,5.5h-1.8c-2.4,0-4.4,2-4.4,4.4v2.7c0,2.9,2.3,5.2,5.2,5.2h0.2c2.9,0,5.2-2.3,5.2-5.2V9.9 C19.5,7.5,17.5,5.5,15.1,5.5z" /> </g> </g> </svg> 